<svg width="18" height="81" viewBox="0 0 18 81" fill="none" xmlns="http://www.w3.org/2000/svg">
<path d="M2.61742 1C6.29222 5.50855 7.84779 9.06965 7.5866 14.8537C7.35073 20.0771 4.83026 25.7589 2.99358 30.6169C0.7196 36.6317 -1.05764 48.4384 6.18098 51.9334C11.8016 54.6471 18.5227 50.5796 16.6935 44.1784C15.9883 41.7106 12.6409 40.4354 10.3187 41.5285C7.81043 42.7091 6.60126 46.2385 6.02259 48.6794C4.4685 55.2347 10.7077 59.602 11.8035 65.5338C12.8272 71.0756 10.3049 75.191 6.8937 79.3875C6.6015 79.7469 8.54559 79.5628 9.03183 79.5628C10.8143 79.5628 10.0232 79.9136 8.67547 79.9136C7.80869 79.9136 5.96579 80.363 6.45813 79.2121C6.81334 78.3818 6.8937 76.6366 6.8937 75.7049" stroke="#F7F7F7" stroke-width="2" stroke-linecap="round"/>
</svg>
