<svg width="104" height="96" viewBox="0 0 104 96" fill="none" xmlns="http://www.w3.org/2000/svg">
<path opacity="0.6" d="M79.1222 49.1837C88.8775 51.0968 98.3366 44.7395 100.25 34.9842C102.163 25.2289 95.8056 15.7698 86.0503 13.8566C76.295 11.9435 66.8358 18.3008 64.9227 28.0561C63.0095 37.8114 69.3669 47.2705 79.1222 49.1837Z" fill="#FEF5E8"/>
<path opacity="0.6" d="M10.7944 80.6217C16.756 81.7908 22.5366 77.9058 23.7057 71.9442C24.8749 65.9827 20.9898 60.2021 15.0283 59.0329C9.0667 57.8638 3.28611 61.7488 2.11697 67.7104C0.94783 73.672 4.83286 79.4526 10.7944 80.6217Z" fill="#FEF5E8"/>
<path opacity="0.6" d="M43.8711 62.651C49.8327 63.8201 55.6133 59.9351 56.7824 53.9735C57.9515 48.012 54.0665 42.2314 48.1049 41.0622C42.1434 39.8931 36.3628 43.7781 35.1936 49.7397C34.0245 55.7013 37.9095 61.4819 43.8711 62.651Z" fill="#FEF5E8"/>
</svg>
