<svg width="51" height="51" viewBox="0 0 51 51" fill="none" xmlns="http://www.w3.org/2000/svg">
<circle cx="25.5" cy="25.5" r="25.5" fill="white"/>
<path d="M30.6063 36.626C29.8625 36.5897 29.142 36.3553 28.5193 35.947L25.4903 34.154C25.2985 34.0639 25.0892 34.0171 24.8773 34.0171C24.6654 34.0171 24.4561 34.0639 24.2643 34.154L21.2273 35.947C19.4343 37.011 18.3813 36.585 17.9053 36.241C17.4293 35.897 16.7053 35.015 17.1863 32.989L17.9043 29.88C17.9326 29.6804 17.9184 29.477 17.8626 29.2833C17.8067 29.0896 17.7105 28.9099 17.5803 28.756L15.0683 26.244C14.6437 25.9157 14.3244 25.4704 14.1498 24.963C13.9751 24.4555 13.9527 23.908 14.0853 23.388C14.2831 22.8896 14.6207 22.459 15.0575 22.148C15.4943 21.837 16.0116 21.6589 16.5473 21.635L19.7783 21.098C20.1416 21.003 20.4539 20.7707 20.6493 20.45L22.4423 16.874C23.2523 15.243 24.3163 15 24.8733 15C25.4303 15 26.4943 15.243 27.3043 16.874L29.0873 20.44C29.2889 20.7592 29.6035 20.9906 29.9683 21.088L33.1993 21.625C33.7362 21.6453 34.2554 21.8222 34.6929 22.1341C35.1304 22.446 35.467 22.8791 35.6613 23.38C35.7885 23.9002 35.7634 24.446 35.5891 24.9523C35.4149 25.4587 35.0987 25.9043 34.6783 26.236L32.1663 28.758C32.0375 28.9128 31.9423 29.0926 31.8865 29.2861C31.8308 29.4795 31.8157 29.6824 31.8423 29.882L32.5613 32.992C33.0273 35.018 32.3083 35.899 31.8423 36.244C31.4816 36.5 31.0485 36.6338 30.6063 36.626ZM24.8733 32.493C25.3591 32.4877 25.8377 32.6101 26.2613 32.848L29.2903 34.641C30.1713 35.168 30.7283 35.168 30.9413 35.016C31.1543 34.864 31.3063 34.327 31.0833 33.335L30.3643 30.225C30.2802 29.7733 30.3022 29.3082 30.4287 28.8666C30.5553 28.4249 30.7828 28.0186 31.0933 27.68L33.6053 25.168C34.1053 24.668 34.3243 24.185 34.2233 23.851C34.1223 23.517 33.6463 23.243 32.9573 23.132L29.7263 22.595C29.3094 22.5069 28.9163 22.3301 28.5738 22.0767C28.2313 21.8232 27.9474 21.499 27.7413 21.126L25.9573 17.563C25.6333 16.915 25.2283 16.53 24.8733 16.53C24.5183 16.53 24.1133 16.915 23.7993 17.563L22.0073 21.128C21.8011 21.5011 21.517 21.8254 21.1743 22.0789C20.8316 22.3323 20.4384 22.5091 20.0213 22.597L16.8003 23.134C16.1113 23.245 15.6453 23.519 15.5343 23.853C15.4233 24.187 15.6563 24.684 16.1523 25.17L18.6643 27.68C18.9749 28.0179 19.2026 28.4236 19.3291 28.8649C19.4557 29.3061 19.4776 29.7708 19.3933 30.222L18.6743 33.332C18.4413 34.332 18.6033 34.862 18.8163 35.013C19.0293 35.164 19.5763 35.155 20.4673 34.638L23.4963 32.845C23.9158 32.6072 24.3911 32.4856 24.8733 32.493Z" fill="#F68F31"/>
</svg>
