<svg width="51" height="57" viewBox="0 0 51 57" fill="none" xmlns="http://www.w3.org/2000/svg">
<path fill-rule="evenodd" clip-rule="evenodd" d="M1 55.8594H50V22.8594H1V55.8594Z" fill="#f25f2d" stroke="#35445D" stroke-linejoin="round"/>
<path fill-rule="evenodd" clip-rule="evenodd" d="M1 22.8594L25.5 38.8594L50 22.8594H1Z" fill="#E5EEF5"/>
<path fill-rule="evenodd" clip-rule="evenodd" d="M1.13184 23.1468H49.8668L29.4808 2.64775C27.2958 0.45075 23.7038 0.45075 21.5188 2.64775L1.13184 23.1468Z" fill="#f25f2d"/>
<path fill-rule="evenodd" clip-rule="evenodd" d="M1.13184 23.1468H49.8668L29.4808 2.64775C27.2958 0.45075 23.7038 0.45075 21.5188 2.64775L1.13184 23.1468Z" stroke="#35445D" stroke-linejoin="round"/>
<path fill-rule="evenodd" clip-rule="evenodd" d="M43.2459 8.5498V27.5728L25.4999 39.4378L7.75391 27.5728V8.5498H43.2459Z" fill="white"/>
<path fill-rule="evenodd" clip-rule="evenodd" d="M43.2459 8.5498V27.5728L25.4999 39.4378L7.75391 27.5728V8.5498H43.2459Z" stroke="#35445D"/>
<path fill-rule="evenodd" clip-rule="evenodd" d="M13.564 16.2383H24.192C24.768 16.2383 25.235 15.7713 25.235 15.1953C25.235 14.6193 24.768 14.1523 24.192 14.1523H13.564C12.988 14.1523 12.521 14.6193 12.521 15.1953C12.521 15.7713 12.988 16.2383 13.564 16.2383Z" fill="#35445D"/>
<path d="M13.564 20.669H37.435C38.011 20.669 38.478 20.202 38.478 19.626C38.478 19.05 38.011 18.583 37.435 18.583H13.564C12.988 18.583 12.521 19.05 12.521 19.626C12.521 20.202 12.988 20.669 13.564 20.669Z" fill="#35445D"/>
<path d="M13.564 25.1016H37.435C38.011 25.1016 38.478 24.6346 38.478 24.0586C38.478 23.4826 38.011 23.0156 37.435 23.0156H13.564C12.988 23.0156 12.521 23.4826 12.521 24.0586C12.521 24.6346 12.988 25.1016 13.564 25.1016Z" fill="#35445D"/>
<path fill-rule="evenodd" clip-rule="evenodd" d="M46.3249 9.59616C46.3249 12.2762 44.1309 14.4492 41.4249 14.4492C38.7189 14.4492 36.5249 12.2762 36.5249 9.59616C36.5249 6.91616 38.7189 4.74316 41.4249 4.74316C44.1309 4.74316 46.3249 6.91616 46.3249 9.59616Z" fill="#F68F31" stroke="#35445D"/>
<path d="M1.13184 23.1475L49.8668 55.7305" stroke="#35445D"/>
<path d="M49.8668 23.1475L1.13184 55.7305" stroke="#35445D"/>
</svg>
