<svg width="63" height="59" viewBox="0 0 63 59" fill="none" xmlns="http://www.w3.org/2000/svg">
<path d="M60.1531 14.4918C66.8651 31.1618 59.2481 49.9417 43.1421 56.4217C27.0361 62.9017 8.54205 54.6418 1.82805 37.9618C-4.88595 21.2817 7.88507 10.3718 23.9911 3.8918C40.0971 -2.5882 53.4421 -2.18822 60.1531 14.4918Z" fill="#F58B30"/>
<path d="M20.001 35.8731C20.0038 36.4778 20.2083 37.0648 20.5831 37.5438C20.9579 38.0228 21.4821 38.3672 22.0751 38.524C22.2066 39.4845 22.6868 40.3657 23.4268 41.0047C24.1667 41.6436 25.1165 41.9972 26.1006 42H31.0014C31.2086 42 31.4074 41.9189 31.554 41.7746C31.7005 41.6302 31.7829 41.4344 31.7829 41.2303C31.7829 41.0261 31.7005 40.8304 31.554 40.686C31.4074 40.5417 31.2086 40.4606 31.0014 40.4606H26.1006C25.524 40.4597 24.9651 40.2642 24.5171 39.9066C24.0691 39.549 23.7592 39.0509 23.6389 38.4955C24.2079 38.3219 24.7059 37.974 25.0603 37.5023C25.4146 37.0306 25.6069 36.4599 25.609 35.8731V31.4642C25.608 30.7321 25.3122 30.0303 24.7866 29.5128C24.2609 28.9952 23.5483 28.7041 22.805 28.7032C22.3886 28.7055 21.978 28.8002 21.6038 28.9803C21.7954 26.6548 22.8686 24.4855 24.61 22.9038C26.3515 21.3221 28.6336 20.4439 31.0025 20.4439C33.3714 20.4439 35.6536 21.3221 37.395 22.9038C39.1365 24.4855 40.2097 26.6548 40.4012 28.9803C40.0267 28.7998 39.6155 28.7048 39.1985 28.7025C38.455 28.7031 37.742 28.9942 37.2162 29.512C36.6903 30.0298 36.3945 30.7319 36.3937 31.4642V35.8731C36.3931 36.6055 36.6879 37.3081 37.2132 37.8263C37.7386 38.3446 38.4514 38.6361 39.195 38.6368C39.9386 38.6374 40.6519 38.347 41.1782 37.8296C41.7044 37.3122 42.0004 36.6101 42.001 35.8777V29.7431C41.9765 26.8856 40.8068 24.1533 38.7466 22.1411C36.6863 20.129 33.9024 19 31.001 19C28.0996 19 25.3156 20.129 23.2554 22.1411C21.1951 24.1533 20.0254 26.8856 20.001 29.7431V35.8731ZM39.1977 37.0954C38.8687 37.095 38.5533 36.9661 38.3207 36.7369C38.088 36.5078 37.9571 36.1972 37.9567 35.8731V31.4642C37.9648 31.1454 38.0991 30.8424 38.3309 30.6198C38.5627 30.3972 38.8736 30.2726 39.1973 30.2726C39.5211 30.2726 39.832 30.3972 40.0638 30.6198C40.2956 30.8424 40.4299 31.1454 40.438 31.4642V35.8731C40.4378 36.1971 40.3071 36.5077 40.0745 36.7369C39.842 36.9661 39.5267 37.095 39.1977 37.0954ZM22.8042 30.245C23.1329 30.245 23.4482 30.3733 23.6809 30.6018C23.9137 30.8304 24.045 31.1405 24.046 31.4642V35.8731C24.0502 36.0361 24.0212 36.1984 23.9607 36.3502C23.9002 36.502 23.8095 36.6404 23.6939 36.7572C23.5783 36.8739 23.4401 36.9667 23.2875 37.0301C23.1349 37.0934 22.971 37.1261 22.8054 37.1261C22.6398 37.1261 22.4759 37.0934 22.3233 37.0301C22.1707 36.9667 22.0325 36.8739 21.9169 36.7572C21.8013 36.6404 21.7106 36.502 21.6501 36.3502C21.5896 36.1984 21.5606 36.0361 21.5648 35.8731V31.4642C21.5652 31.1404 21.696 30.8299 21.9285 30.6009C22.161 30.3719 22.4762 30.2431 22.805 30.2427L22.8042 30.245Z" fill="#FAFAFA"/>
</svg>
