<svg width="63" height="59" viewBox="0 0 63 59" fill="none" xmlns="http://www.w3.org/2000/svg">
<path d="M60.1531 14.4918C66.8651 31.1618 59.2481 49.9417 43.1421 56.4217C27.0361 62.9017 8.54205 54.6418 1.82805 37.9618C-4.88595 21.2817 7.88507 10.3718 23.9911 3.8918C40.0971 -2.5882 53.4421 -2.18822 60.1531 14.4918Z" fill="#F58B30"/>
<g clip-path="url(#clip0_231_377)">
<path d="M40.0294 40H16.6251C16.4595 40 16.3006 39.934 16.1834 39.8164C16.0662 39.6987 16.0002 39.5392 16 39.3727V25.9123C16 25.7457 16.0659 25.586 16.1831 25.4682C16.3003 25.3504 16.4593 25.2842 16.6251 25.2842H40.0294C40.1952 25.2842 40.3542 25.3504 40.4714 25.4682C40.5887 25.586 40.6545 25.7457 40.6545 25.9123V39.3727C40.6543 39.5392 40.5883 39.6987 40.4711 39.8164C40.3539 39.934 40.195 40 40.0294 40ZM17.2503 38.7479H39.4042V26.5404H17.2503V38.7479Z" fill="#FAFAFA"/>
<path d="M35.9992 38.0974H20.6573C20.4915 38.0974 20.3325 38.0312 20.2153 37.9134C20.098 37.7956 20.0322 37.6359 20.0322 37.4693C20.0317 37.135 19.8993 36.8145 19.664 36.5783C19.4287 36.342 19.1097 36.2091 18.777 36.2089C18.6112 36.2089 18.4522 36.1427 18.335 36.0249C18.2177 35.9071 18.1519 35.7474 18.1519 35.5808V29.703C18.1519 29.5364 18.2177 29.3766 18.335 29.2588C18.4522 29.141 18.6112 29.0748 18.777 29.0748C19.1098 29.0744 19.4288 28.9414 19.6641 28.705C19.8993 28.4686 20.0317 28.148 20.0322 27.8137C20.0322 27.6471 20.098 27.4873 20.2153 27.3695C20.3325 27.2517 20.4915 27.1855 20.6573 27.1855H36.0001C36.1659 27.1855 36.3249 27.2517 36.4421 27.3695C36.5593 27.4873 36.6252 27.6471 36.6252 27.8137C36.6254 28.1472 36.757 28.4672 36.9913 28.7035C37.2256 28.9398 37.5435 29.0733 37.8755 29.0748C37.9576 29.0748 38.0389 29.0911 38.1147 29.1227C38.1905 29.1542 38.2595 29.2005 38.3175 29.2588C38.3756 29.3171 38.4216 29.3864 38.453 29.4626C38.4844 29.5388 38.5006 29.6205 38.5006 29.703V35.58C38.5006 35.7466 38.4347 35.9063 38.3175 36.0241C38.2003 36.1419 38.0413 36.2081 37.8755 36.2081C37.5429 36.2085 37.2241 36.3415 36.989 36.5777C36.7538 36.814 36.6215 37.1343 36.6211 37.4684C36.6211 37.6342 36.5559 37.7932 36.4398 37.9109C36.3236 38.0285 36.1658 38.0953 36.0009 38.0966L35.9992 38.0974ZM21.2065 36.8411H35.4565C35.5685 36.4061 35.7939 36.0089 36.1095 35.6905C36.4251 35.3721 36.8194 35.144 37.252 35.0297V30.2516C36.8188 30.1383 36.4236 29.911 36.1071 29.593C35.7906 29.275 35.5643 28.8779 35.4516 28.4426H21.2033C21.0907 28.8779 20.8645 29.2751 20.548 29.5932C20.2315 29.9112 19.8362 30.1385 19.4029 30.2516V35.0289C19.8364 35.1424 20.2318 35.3701 20.5483 35.6885C20.8649 36.007 21.091 36.4046 21.2033 36.8403L21.2065 36.8411Z" fill="#FAFAFA"/>
<path d="M28.3274 36.1042C27.646 36.1043 26.9799 35.9014 26.4133 35.5212C25.8467 35.1409 25.405 34.6003 25.1442 33.9678C24.8834 33.3353 24.8151 32.6393 24.948 31.9678C25.0809 31.2963 25.409 30.6795 25.8908 30.1954C26.3726 29.7113 26.9865 29.3816 27.6548 29.2481C28.3231 29.1146 29.0158 29.1832 29.6453 29.4453C30.2747 29.7073 30.8127 30.1511 31.1912 30.7204C31.5696 31.2898 31.7716 31.9591 31.7714 32.6437C31.7712 33.5614 31.4083 34.4415 30.7624 35.0904C30.1166 35.7393 29.2408 36.1039 28.3274 36.1042ZM28.3274 30.4379C27.8932 30.4377 27.4687 30.567 27.1076 30.8092C26.7464 31.0515 26.4649 31.396 26.2986 31.799C26.1324 32.2021 26.0888 32.6456 26.1734 33.0735C26.258 33.5015 26.467 33.8946 26.774 34.2032C27.081 34.5117 27.4722 34.7219 27.898 34.8071C28.3239 34.8923 28.7653 34.8486 29.1665 34.6817C29.5677 34.5148 29.9106 34.2321 30.1519 33.8693C30.3932 33.5065 30.5219 33.08 30.5219 32.6437C30.522 32.354 30.4654 32.0672 30.3551 31.7995C30.2449 31.5319 30.0833 31.2886 29.8795 31.0837C29.6757 30.8788 29.4338 30.7162 29.1675 30.6053C28.9012 30.4943 28.6157 30.438 28.3274 30.4379Z" fill="#FAFAFA"/>
<path d="M41.5116 36.4032C41.3514 36.403 41.1974 36.341 41.0814 36.23C40.9654 36.119 40.8963 35.9675 40.8882 35.8067C40.8801 35.646 40.9338 35.4883 41.0381 35.3661C41.1424 35.2439 41.2894 35.1667 41.4488 35.1503L42.1702 35.074L40.9011 22.9379L20.7809 25.0601C20.616 25.0775 20.4509 25.0283 20.3221 24.9234C20.1932 24.8186 20.1111 24.6665 20.0938 24.5008C20.0764 24.3351 20.1253 24.1693 20.2297 24.0398C20.3341 23.9103 20.4854 23.8278 20.6503 23.8104L41.39 21.6226C41.4717 21.614 41.5542 21.6216 41.633 21.645C41.7117 21.6684 41.7851 21.7072 41.8489 21.7592C41.9127 21.8111 41.9657 21.8752 42.0049 21.9477C42.044 22.0202 42.0686 22.0998 42.0772 22.1818L43.476 35.5676C43.4846 35.6497 43.477 35.7327 43.4537 35.8118C43.4303 35.8909 43.3917 35.9646 43.34 36.0287C43.2883 36.0929 43.2246 36.1461 43.1524 36.1855C43.0802 36.2248 43.0011 36.2495 42.9194 36.2581L41.5761 36.4C41.5532 36.4 41.532 36.4 41.51 36.4L41.5116 36.4032Z" fill="#FAFAFA"/>
<path d="M44.3539 32.6732C44.1985 32.6728 44.0489 32.6144 43.9341 32.5092C43.8193 32.4041 43.7476 32.2598 43.733 32.1044C43.7183 31.949 43.7617 31.7937 43.8548 31.6688C43.9478 31.5438 44.0839 31.4581 44.2363 31.4284L44.6444 31.3464L42.3544 19.3645L22.7679 23.1365C22.6069 23.1632 22.4419 23.1257 22.308 23.0319C22.1741 22.9381 22.082 22.7955 22.0513 22.6345C22.0205 22.4734 22.0536 22.3067 22.1434 22.1698C22.2332 22.0329 22.3726 21.9367 22.532 21.9016L42.7331 18.0147C42.8138 17.9988 42.897 17.999 42.9776 18.0154C43.0583 18.0318 43.135 18.0641 43.2032 18.1103C43.2715 18.1565 43.33 18.2159 43.3753 18.2849C43.4207 18.3539 43.452 18.4313 43.4676 18.5125L45.9861 31.7294C46.0019 31.8106 46.0017 31.8941 45.9853 31.9753C45.9689 32.0564 45.9368 32.1334 45.8907 32.202C45.8445 32.2706 45.7854 32.3293 45.7166 32.3749C45.6478 32.4204 45.5708 32.4519 45.4899 32.4674L44.4697 32.6642C44.4315 32.6707 44.3927 32.6737 44.3539 32.6732Z" fill="#FAFAFA"/>
</g>
<defs>
<clipPath id="clip0_231_377">
<rect width="30" height="22" fill="white" transform="translate(16 18)"/>
</clipPath>
</defs>
</svg>
