<svg width="48" height="32" viewBox="0 0 48 32" fill="none" xmlns="http://www.w3.org/2000/svg">
<g clip-path="url(#clip0_133_3266)">
<path d="M33.398 14.6998C35.0779 13.6795 37.044 13.2332 38.9996 13.4284C40.9553 13.6235 42.7945 14.4493 44.2396 15.7814C45.6847 17.1135 46.6573 18.8793 47.0107 20.8126C47.3641 22.746 47.0791 24.742 46.1987 26.4992C45.3183 28.2563 43.8902 29.6795 42.13 30.5538C40.3698 31.4282 38.373 31.7064 36.4409 31.3463C34.5088 30.9863 32.7462 30.0074 31.4191 28.5578C30.092 27.1081 29.2724 25.2661 29.0841 23.3097C28.4071 19.2297 28.2641 14.3394 30.0421 9.9894C31.9481 5.3194 35.9321 1.58969 42.8781 0.0396884C43.4561 -0.06956 44.0541 0.0487428 44.5471 0.369767C45.0407 0.691397 45.388 1.19415 45.514 1.76967C45.641 2.34506 45.5399 2.94742 45.2321 3.44984C44.9245 3.95024 44.4324 4.30947 43.8621 4.44984C38.2431 5.70984 35.535 8.51984 34.233 11.6998C33.8447 12.6659 33.5646 13.6721 33.398 14.6998Z" fill="#F68F31"/>
<path d="M4.78303 15.0392C6.4622 14.0203 8.42713 13.5751 10.3815 13.7706C12.3358 13.9661 14.1736 14.7914 15.6177 16.1227C17.0619 17.4539 18.0339 19.2189 18.3874 21.151C18.7409 23.083 18.4567 25.0773 17.5775 26.8336C16.6983 28.5899 15.2719 30.013 13.5133 30.8878C11.7548 31.7626 9.75949 32.042 7.82835 31.6837C5.89721 31.3254 4.13494 30.3489 2.80729 28.9015C1.47965 27.454 0.658614 25.6141 0.46803 23.6593C-0.20897 19.5693 -0.350962 14.6792 1.42604 10.3292C3.33304 5.6592 7.31704 1.929 14.263 0.379005C14.842 0.26711 15.4418 0.385719 15.9349 0.709083C16.428 1.03245 16.7756 1.53535 16.9037 2.11094C17.0318 2.68653 16.9305 3.2891 16.6211 3.79111C16.3117 4.29313 15.8188 4.65464 15.247 4.79893C9.62802 6.04893 6.91902 8.85916 5.61802 12.0392C5.23049 13.0055 4.95048 14.0116 4.78303 15.0392Z" fill="#F68F31"/>
</g>
<defs>
<clipPath id="clip0_133_3266">
<rect width="47.148" height="31.838" fill="white"/>
</clipPath>
</defs>
</svg>
