<svg width="57" height="29" viewBox="0 0 57 29" fill="none" xmlns="http://www.w3.org/2000/svg">
<path d="M52.6331 0.488028C55.0317 0.488028 57.0099 2.44348 56.6457 4.81421C56.2996 7.06672 55.6837 9.27479 54.8075 11.3899C53.3759 14.8463 51.2775 17.9867 48.6321 20.6321C45.9867 23.2775 42.8462 25.3759 39.3899 26.8075C35.9336 28.2392 32.2291 28.9761 28.488 28.9761C24.7469 28.9761 21.0425 28.2392 17.5861 26.8075C14.1298 25.3759 10.9893 23.2775 8.34395 20.6321C5.69859 17.9867 3.60018 14.8462 2.16852 11.3899C1.2924 9.27478 0.676482 7.06672 0.3304 4.8142C-0.0338428 2.44348 1.9444 0.488026 4.34295 0.488026C6.74149 0.488026 8.6384 2.45518 9.16023 4.79626C9.40879 5.91135 9.75396 7.00547 10.1932 8.06598C11.1884 10.4685 12.647 12.6515 14.4858 14.4902C16.3246 16.329 18.5076 17.7877 20.9101 18.7828C23.3126 19.778 25.8876 20.2902 28.488 20.2902C31.0885 20.2902 33.6635 19.778 36.066 18.7828C38.4685 17.7877 40.6515 16.3291 42.4902 14.4903C44.329 12.6515 45.7877 10.4685 46.7828 8.06598C47.2221 7.00547 47.5673 5.91135 47.8158 4.79627C48.3377 2.45518 50.2346 0.488028 52.6331 0.488028Z" fill="#D9D9D9"/>
<path d="M52.6331 0.488028C55.0317 0.488028 57.0099 2.44348 56.6457 4.81421C56.2996 7.06672 55.6837 9.27479 54.8075 11.3899C53.3759 14.8463 51.2775 17.9867 48.6321 20.6321C45.9867 23.2775 42.8462 25.3759 39.3899 26.8075C35.9336 28.2392 32.2291 28.9761 28.488 28.9761C24.7469 28.9761 21.0425 28.2392 17.5861 26.8075C14.1298 25.3759 10.9893 23.2775 8.34395 20.6321C5.69859 17.9867 3.60018 14.8462 2.16852 11.3899C1.2924 9.27478 0.676482 7.06672 0.3304 4.8142C-0.0338428 2.44348 1.9444 0.488026 4.34295 0.488026C6.74149 0.488026 8.6384 2.45518 9.16023 4.79626C9.40879 5.91135 9.75396 7.00547 10.1932 8.06598C11.1884 10.4685 12.647 12.6515 14.4858 14.4902C16.3246 16.329 18.5076 17.7877 20.9101 18.7828C23.3126 19.778 25.8876 20.2902 28.488 20.2902C31.0885 20.2902 33.6635 19.778 36.066 18.7828C38.4685 17.7877 40.6515 16.3291 42.4902 14.4903C44.329 12.6515 45.7877 10.4685 46.7828 8.06598C47.2221 7.00547 47.5673 5.91135 47.8158 4.79627C48.3377 2.45518 50.2346 0.488028 52.6331 0.488028Z" fill="url(#paint0_linear_133_3339)"/>
<defs>
<linearGradient id="paint0_linear_133_3339" x1="30.7854" y1="-36.4169" x2="20.1198" y2="24.7673" gradientUnits="userSpaceOnUse">
<stop stop-color="#FEF5E8"/>
<stop offset="1" stop-color="#FF8845"/>
</linearGradient>
</defs>
</svg>
