<svg width="84" height="15" viewBox="0 0 84 15" fill="none" xmlns="http://www.w3.org/2000/svg">
<g clip-path="url(#clip0_279_376)">
<path d="M7.604 0L10.472 4.0498L15.212 5.52979L12.245 9.50977L12.306 14.4702L7.60602 12.8799L2.90601 14.4702L2.96698 9.50977L0 5.52979L4.73999 4.0498L7.604 0Z" fill="#F68F31"/>
</g>
<g clip-path="url(#clip1_279_376)">
<path d="M24.6079 0L27.4759 4.0498L32.2159 5.52979L29.2489 9.50977L29.3099 14.4702L24.6099 12.8799L19.9099 14.4702L19.9709 9.50977L17.0039 5.52979L21.7439 4.0498L24.6079 0Z" fill="#F68F31"/>
</g>
<g clip-path="url(#clip2_279_376)">
<path d="M41.6079 0L44.4759 4.0498L49.2159 5.52979L46.2489 9.50977L46.3099 14.4702L41.6099 12.8799L36.9099 14.4702L36.9709 9.50977L34.0039 5.52979L38.7439 4.0498L41.6079 0Z" fill="#F68F31"/>
</g>
<g clip-path="url(#clip3_279_376)">
<path d="M58.6079 0L61.4759 4.0498L66.2159 5.52979L63.2489 9.50977L63.3099 14.4702L58.6099 12.8799L53.9099 14.4702L53.9709 9.50977L51.0039 5.52979L55.7439 4.0498L58.6079 0Z" fill="#F68F31"/>
</g>
<g clip-path="url(#clip4_279_376)">
<path d="M75.6079 0L78.4759 4.0498L83.2159 5.52979L80.2489 9.50977L80.3099 14.4702L75.6099 12.8799L70.9099 14.4702L70.9709 9.50977L68.0039 5.52979L72.7439 4.0498L75.6079 0Z" fill="#F68F31"/>
</g>
<defs>
<clipPath id="clip0_279_376">
<rect width="15.216" height="14.47" fill="white"/>
</clipPath>
<clipPath id="clip1_279_376">
<rect width="15.216" height="14.47" fill="white" transform="translate(17)"/>
</clipPath>
<clipPath id="clip2_279_376">
<rect width="15.216" height="14.47" fill="white" transform="translate(34)"/>
</clipPath>
<clipPath id="clip3_279_376">
<rect width="15.216" height="14.47" fill="white" transform="translate(51)"/>
</clipPath>
<clipPath id="clip4_279_376">
<rect width="15.216" height="14.47" fill="white" transform="translate(68)"/>
</clipPath>
</defs>
</svg>
