<svg width="63" height="59" viewBox="0 0 63 59" fill="none" xmlns="http://www.w3.org/2000/svg">
<path d="M60.1531 14.4918C66.8651 31.1618 59.2481 49.9417 43.1421 56.4217C27.0361 62.9017 8.54205 54.6418 1.82805 37.9618C-4.88595 21.2817 7.88507 10.3718 23.9911 3.8918C40.0971 -2.5882 53.4421 -2.18822 60.1531 14.4918Z" fill="#F58B30"/>
<g clip-path="url(#clip0_231_376)">
<path d="M45.112 23.01V22.988C45.099 22.704 45.091 22.404 45.085 22.071C45.0714 21.282 44.7603 20.5272 44.2138 19.9579C43.6673 19.3886 42.9258 19.0468 42.138 19.001C39.0404 18.9382 36.0839 17.6936 33.874 15.522L33.855 15.501C33.5058 15.1774 33.0472 14.9976 32.571 14.9976C32.0948 14.9976 31.6362 15.1774 31.287 15.501L31.268 15.519C29.0575 17.6925 26.0994 18.9383 23 19.001C22.2132 19.048 21.4732 19.3902 20.9277 19.9592C20.3823 20.5281 20.0717 21.282 20.058 22.07C20.058 22.402 20.044 22.702 20.031 22.987V23.041C19.964 26.501 19.882 30.81 21.323 34.72C22.0805 36.816 23.2996 38.7148 24.89 40.276C26.8858 42.1475 29.2687 43.5571 31.87 44.405C31.9634 44.4375 32.059 44.4636 32.156 44.483C32.4303 44.538 32.7127 44.538 32.987 44.483C33.0843 44.4636 33.1802 44.4376 33.274 44.405C35.8724 43.5551 38.2525 42.1449 40.246 40.274C41.836 38.7121 43.055 36.813 43.813 34.717C45.259 30.794 45.177 26.478 45.112 23.01ZM42.187 34.117C40.667 38.238 37.564 41.068 32.701 42.769C32.683 42.7752 32.6646 42.7802 32.646 42.784C32.5958 42.794 32.5442 42.794 32.494 42.784C32.4754 42.7803 32.457 42.7752 32.439 42.769C27.571 41.069 24.466 38.243 22.947 34.122C21.62 30.517 21.7 26.563 21.762 23.074V23.055C21.776 22.755 21.785 22.441 21.789 22.096C21.796 21.7458 21.9349 21.4111 22.1779 21.1587C22.4209 20.9064 22.7502 20.7551 23.1 20.735C24.8727 20.661 26.6187 20.2772 28.259 19.601C29.8246 18.9326 31.2496 17.9741 32.459 16.776C32.4884 16.7496 32.5265 16.735 32.566 16.735C32.6055 16.735 32.6436 16.7496 32.673 16.776C33.8824 17.9741 35.3074 18.9326 36.873 19.601C38.5132 20.2776 40.2593 20.6617 42.032 20.736C42.3841 20.7537 42.7163 20.9046 42.9614 21.158C43.2065 21.4114 43.3461 21.7485 43.352 22.101C43.357 22.448 43.366 22.762 43.38 23.06C43.446 26.547 43.519 30.501 42.187 34.117Z" fill="#FAFAFA"/>
<path d="M32.5699 22.4053C31.1146 22.4053 29.692 22.8368 28.482 23.6453C27.272 24.4538 26.3289 25.603 25.772 26.9475C25.2151 28.292 25.0694 29.7714 25.3533 31.1987C25.6372 32.6261 26.338 33.9371 27.367 34.9662C28.3961 35.9952 29.7071 36.696 31.1344 36.9799C32.5618 37.2638 34.0412 37.1181 35.3857 36.5612C36.7302 36.0043 37.8794 35.0612 38.6879 33.8512C39.4964 32.6411 39.9279 31.2185 39.9279 29.7633C39.9258 27.8125 39.1499 25.9421 37.7705 24.5627C36.391 23.1833 34.5207 22.4074 32.5699 22.4053ZM32.5699 35.3883C31.4574 35.3883 30.3699 35.0584 29.4448 34.4403C28.5198 33.8222 27.7988 32.9437 27.3731 31.9159C26.9474 30.888 26.836 29.757 27.053 28.6659C27.27 27.5748 27.8058 26.5725 28.5924 25.7858C29.3791 24.9991 30.3814 24.4634 31.4725 24.2464C32.5637 24.0293 33.6947 24.1407 34.7225 24.5665C35.7503 24.9922 36.6288 25.7132 37.2469 26.6382C37.865 27.5632 38.1949 28.6508 38.1949 29.7633C38.1931 31.2545 37.5998 32.6842 36.5453 33.7387C35.4909 34.7932 34.0612 35.3864 32.5699 35.3883Z" fill="#FAFAFA"/>
<path d="M34.688 27.4778L31.271 30.8949L30.343 29.9668C30.1805 29.8044 29.9602 29.7132 29.7305 29.7132C29.5007 29.7132 29.2804 29.8044 29.118 29.9668C28.9555 30.1293 28.8643 30.3496 28.8643 30.5793C28.8643 30.8091 28.9555 31.0294 29.118 31.1918L30.658 32.7318C30.7384 32.8123 30.8339 32.8761 30.939 32.9197C31.0441 32.9632 31.1567 32.9856 31.2705 32.9856C31.3842 32.9856 31.4969 32.9632 31.602 32.9197C31.7071 32.8761 31.8025 32.8123 31.883 32.7318L35.913 28.7018C36.0754 28.5394 36.1667 28.3191 36.1667 28.0894C36.1667 27.8596 36.0754 27.6393 35.913 27.4769C35.7505 27.3144 35.5302 27.2231 35.3005 27.2231C35.0707 27.2231 34.8504 27.3154 34.688 27.4778Z" fill="#FAFAFA"/>
</g>
<defs>
<clipPath id="clip0_231_376">
<rect width="25.141" height="29.523" fill="white" transform="translate(20 15)"/>
</clipPath>
</defs>
</svg>
